<svg xmlns="http://www.w3.org/2000/svg" xmlns:xlink="http://www.w3.org/1999/xlink" width="500" zoomAndPan="magnify" viewBox="0 0 375 374.999991" height="500" preserveAspectRatio="xMidYMid meet" version="1.0"><defs><filter x="0%" y="0%" width="100%" height="100%" id="6a34927e9b"><feColorMatrix values="0 0 0 0 1 0 0 0 0 1 0 0 0 0 1 0 0 0 1 0" color-interpolation-filters="sRGB"/></filter><mask id="2057dc5ee4"><g filter="url(#6a34927e9b)"><rect x="-37.5" width="450" fill="#000000" y="-37.499999" height="449.999989" fill-opacity="0.15"/></g></mask><clipPath id="d259db3433"><path d="M 0.601562 0.558594 L 296.519531 0.558594 L 296.519531 226.640625 L 0.601562 226.640625 Z M 0.601562 0.558594 " clip-rule="nonzero"/></clipPath><clipPath id="aa3c683582"><path d="M 16.175781 0.742188 C 7.582031 0.742188 0.609375 7.710938 0.609375 16.308594 L 0.609375 210.894531 C 0.609375 219.492188 7.582031 226.464844 16.175781 226.464844 L 280.816406 226.464844 C 289.414062 226.464844 296.382812 219.492188 296.382812 210.894531 L 296.382812 16.308594 C 296.382812 7.710938 289.414062 0.742188 280.816406 0.742188 Z M 273.03125 63.011719 L 23.960938 63.011719 L 23.960938 210.894531 L 273.03125 210.894531 Z M 273.03125 63.011719 " clip-rule="evenodd"/></clipPath><clipPath id="6c6755bd1d"><rect x="0" width="297" y="0" height="227"/></clipPath><clipPath id="2bb782fd80"><path d="M 31.824219 65 L 343.074219 65 L 343.074219 310 L 31.824219 310 Z M 31.824219 65 " clip-rule="nonzero"/></clipPath><clipPath id="0d7581baa1"><path d="M 324.617188 65.878906 L 50.375 65.878906 C 40.148438 65.878906 31.828125 74.199219 31.828125 84.425781 L 31.828125 290.566406 C 31.828125 300.789062 40.148438 309.109375 50.375 309.109375 L 324.617188 309.109375 C 334.84375 309.109375 343.164062 300.789062 343.164062 290.566406 L 343.164062 84.425781 C 343.164062 74.199219 334.84375 65.878906 324.617188 65.878906 Z M 331.003906 290.566406 C 331.003906 294.085938 328.140625 296.949219 324.617188 296.949219 L 50.375 296.949219 C 46.855469 296.949219 43.988281 294.085938 43.988281 290.566406 L 43.988281 84.425781 C 43.988281 80.90625 46.855469 78.039062 50.375 78.039062 L 324.617188 78.039062 C 328.140625 78.039062 331.003906 80.90625 331.003906 84.425781 Z M 331.003906 290.566406 " clip-rule="nonzero"/></clipPath><clipPath id="a46dd663b8"><path d="M 141 95 L 311 95 L 311 109 L 141 109 Z M 141 95 " clip-rule="nonzero"/></clipPath><clipPath id="5695bd3abe"><path d="M 147.972656 108.039062 L 304.855469 108.039062 C 308.214844 108.039062 310.9375 105.316406 310.9375 101.957031 C 310.9375 98.601562 308.214844 95.875 304.855469 95.875 L 147.972656 95.875 C 144.613281 95.875 141.890625 98.601562 141.890625 101.957031 C 141.890625 105.316406 144.613281 108.039062 147.972656 108.039062 Z M 147.972656 108.039062 " clip-rule="nonzero"/></clipPath><clipPath id="666201786b"><path d="M 62 95 L 75 95 L 75 109 L 62 109 Z M 62 95 " clip-rule="nonzero"/></clipPath><clipPath id="27401f4aa5"><path d="M 62.902344 104.285156 C 63.054688 104.652344 63.242188 105.003906 63.460938 105.332031 C 63.679688 105.664062 63.933594 105.976562 64.214844 106.253906 C 65.34375 107.390625 66.914062 108.039062 68.511719 108.039062 C 68.914062 108.039062 69.308594 108 69.703125 107.921875 C 70.09375 107.84375 70.476562 107.726562 70.84375 107.574219 C 71.207031 107.421875 71.558594 107.234375 71.886719 107.015625 C 72.222656 106.789062 72.53125 106.535156 72.8125 106.257812 C 73.097656 105.976562 73.347656 105.664062 73.570312 105.332031 C 73.792969 105.003906 73.980469 104.652344 74.132812 104.285156 C 74.285156 103.914062 74.398438 103.53125 74.480469 103.148438 C 74.558594 102.753906 74.59375 102.351562 74.59375 101.957031 C 74.59375 101.558594 74.558594 101.160156 74.480469 100.773438 C 74.398438 100.382812 74.285156 99.996094 74.132812 99.632812 C 73.980469 99.261719 73.792969 98.910156 73.570312 98.582031 C 73.347656 98.246094 73.097656 97.9375 72.8125 97.65625 C 72.53125 97.378906 72.222656 97.125 71.886719 96.902344 C 71.558594 96.683594 71.207031 96.496094 70.84375 96.34375 C 70.476562 96.191406 70.09375 96.074219 69.703125 95.996094 C 68.921875 95.839844 68.113281 95.839844 67.328125 95.996094 C 66.9375 96.074219 66.554688 96.191406 66.191406 96.34375 C 65.816406 96.496094 65.464844 96.683594 65.140625 96.902344 C 64.804688 97.125 64.492188 97.378906 64.214844 97.65625 C 63.933594 97.9375 63.679688 98.246094 63.460938 98.582031 C 63.242188 98.910156 63.054688 99.261719 62.902344 99.632812 C 62.75 99.996094 62.632812 100.382812 62.554688 100.773438 C 62.472656 101.160156 62.429688 101.558594 62.429688 101.957031 C 62.429688 102.351562 62.472656 102.753906 62.554688 103.148438 C 62.632812 103.53125 62.75 103.914062 62.902344 104.285156 Z M 62.902344 104.285156 " clip-rule="nonzero"/></clipPath><clipPath id="c39e25bb13"><path d="M 86 95 L 99 95 L 99 109 L 86 109 Z M 86 95 " clip-rule="nonzero"/></clipPath><clipPath id="1e0b3a143e"><path d="M 87.222656 104.285156 C 87.375 104.652344 87.5625 105.003906 87.78125 105.332031 C 88 105.664062 88.257812 105.976562 88.539062 106.253906 C 89.667969 107.390625 91.238281 108.039062 92.835938 108.039062 C 93.238281 108.039062 93.632812 108 94.027344 107.921875 C 94.417969 107.84375 94.800781 107.726562 95.164062 107.574219 C 95.53125 107.421875 95.882812 107.234375 96.210938 107.015625 C 96.546875 106.789062 96.855469 106.535156 97.140625 106.257812 C 97.421875 105.976562 97.671875 105.664062 97.894531 105.332031 C 98.117188 105.003906 98.304688 104.652344 98.453125 104.285156 C 98.605469 103.914062 98.722656 103.53125 98.800781 103.148438 C 98.878906 102.753906 98.914062 102.351562 98.914062 101.957031 C 98.914062 101.558594 98.878906 101.160156 98.800781 100.773438 C 98.722656 100.382812 98.605469 99.996094 98.453125 99.632812 C 98.304688 99.261719 98.117188 98.910156 97.894531 98.582031 C 97.671875 98.246094 97.421875 97.9375 97.140625 97.65625 C 96.855469 97.378906 96.546875 97.125 96.210938 96.902344 C 95.882812 96.683594 95.53125 96.496094 95.164062 96.34375 C 94.800781 96.191406 94.417969 96.074219 94.027344 95.996094 C 93.242188 95.839844 92.4375 95.839844 91.648438 95.996094 C 91.261719 96.074219 90.878906 96.191406 90.515625 96.34375 C 90.140625 96.496094 89.789062 96.683594 89.460938 96.902344 C 89.128906 97.125 88.816406 97.378906 88.539062 97.65625 C 88.257812 97.9375 88 98.246094 87.78125 98.582031 C 87.5625 98.910156 87.375 99.261719 87.222656 99.632812 C 87.074219 99.996094 86.957031 100.382812 86.878906 100.773438 C 86.796875 101.160156 86.753906 101.558594 86.753906 101.957031 C 86.753906 102.351562 86.796875 102.753906 86.878906 103.148438 C 86.957031 103.53125 87.074219 103.914062 87.222656 104.285156 Z M 87.222656 104.285156 " clip-rule="nonzero"/></clipPath><clipPath id="111a6cd88d"><path d="M 111 95 L 124 95 L 124 109 L 111 109 Z M 111 95 " clip-rule="nonzero"/></clipPath><clipPath id="378fd54c8e"><path d="M 111.546875 104.285156 C 111.699219 104.652344 111.886719 105.003906 112.105469 105.332031 C 112.324219 105.664062 112.582031 105.976562 112.863281 106.253906 C 113.140625 106.535156 113.449219 106.789062 113.785156 107.015625 C 114.113281 107.234375 114.464844 107.421875 114.835938 107.574219 C 115.203125 107.726562 115.582031 107.84375 115.972656 107.921875 C 116.363281 108 116.765625 108.035156 117.15625 108.035156 C 117.558594 108.035156 117.957031 108 118.351562 107.921875 C 118.742188 107.84375 119.121094 107.726562 119.488281 107.574219 C 119.855469 107.421875 120.207031 107.234375 120.539062 107.015625 C 120.867188 106.789062 121.179688 106.535156 121.464844 106.253906 C 121.746094 105.976562 121.996094 105.664062 122.21875 105.332031 C 122.4375 105.003906 122.625 104.652344 122.777344 104.285156 C 122.929688 103.914062 123.046875 103.53125 123.125 103.148438 C 123.203125 102.753906 123.238281 102.351562 123.238281 101.953125 C 123.238281 101.558594 123.203125 101.160156 123.125 100.769531 C 123.046875 100.378906 122.929688 99.996094 122.777344 99.632812 C 122.625 99.261719 122.4375 98.910156 122.21875 98.582031 C 121.996094 98.246094 121.746094 97.9375 121.464844 97.65625 C 121.179688 97.378906 120.867188 97.121094 120.539062 96.902344 C 120.207031 96.683594 119.855469 96.496094 119.488281 96.34375 C 119.121094 96.191406 118.742188 96.074219 118.351562 95.996094 C 117.566406 95.839844 116.757812 95.839844 115.972656 95.996094 C 115.582031 96.074219 115.203125 96.191406 114.835938 96.34375 C 114.464844 96.496094 114.113281 96.683594 113.785156 96.902344 C 113.449219 97.121094 113.140625 97.378906 112.863281 97.65625 C 112.582031 97.9375 112.324219 98.246094 112.105469 98.582031 C 111.886719 98.910156 111.699219 99.261719 111.546875 99.632812 C 111.394531 99.996094 111.277344 100.378906 111.203125 100.769531 C 111.121094 101.160156 111.078125 101.558594 111.078125 101.953125 C 111.078125 102.351562 111.121094 102.753906 111.203125 103.148438 C 111.277344 103.53125 111.394531 103.914062 111.546875 104.285156 Z M 111.546875 104.285156 " clip-rule="nonzero"/></clipPath><clipPath id="d3c637ecac"><path d="M 163 169 L 212 169 L 212 243 L 163 243 Z M 163 169 " clip-rule="nonzero"/></clipPath><clipPath id="516dde7949"><path d="M 208.632812 169.894531 C 205.742188 168.183594 202.011719 169.144531 200.300781 172.035156 L 164.222656 233.046875 C 162.511719 235.9375 163.46875 239.667969 166.359375 241.375 C 167.332031 241.949219 168.398438 242.226562 169.449219 242.226562 C 171.53125 242.226562 173.554688 241.15625 174.691406 239.238281 L 210.769531 178.226562 C 212.480469 175.335938 211.523438 171.605469 208.632812 169.894531 Z M 208.632812 169.894531 " clip-rule="nonzero"/></clipPath><clipPath id="7467f62677"><path d="M 108 163 L 146 163 L 146 249 L 108 249 Z M 108 163 " clip-rule="nonzero"/></clipPath><clipPath id="01a6b9a0c2"><path d="M 132.832031 187.769531 L 132.832031 181.628906 C 132.832031 178.226562 135.597656 175.460938 138.996094 175.460938 L 139.082031 175.460938 C 142.441406 175.460938 145.160156 172.738281 145.160156 169.378906 C 145.160156 166.023438 142.441406 163.300781 139.082031 163.300781 L 138.996094 163.300781 C 128.890625 163.300781 120.671875 171.523438 120.671875 181.628906 L 120.671875 187.769531 C 120.671875 189.980469 119.761719 192.136719 118.179688 193.683594 L 110.300781 201.390625 C 109.140625 202.527344 108.484375 204.078125 108.472656 205.703125 C 108.464844 207.328125 109.109375 208.890625 110.257812 210.039062 L 118.285156 218.066406 C 119.835938 219.613281 120.695312 221.667969 120.710938 223.859375 L 120.753906 230.230469 C 120.824219 240.265625 129.046875 248.433594 139.082031 248.433594 C 142.441406 248.433594 145.160156 245.707031 145.160156 242.351562 C 145.160156 238.992188 142.441406 236.273438 139.082031 236.273438 C 135.703125 236.273438 132.9375 233.523438 132.914062 230.148438 L 132.871094 223.777344 C 132.835938 218.367188 130.707031 213.285156 126.882812 209.464844 L 123.203125 205.785156 L 126.6875 202.375 C 130.59375 198.554688 132.832031 193.230469 132.832031 187.769531 Z M 132.832031 187.769531 " clip-rule="nonzero"/></clipPath><clipPath id="bbe55d4b5a"><path d="M 229 163 L 267 163 L 267 249 L 229 249 Z M 229 163 " clip-rule="nonzero"/></clipPath><clipPath id="595ed669d8"><path d="M 242.160156 223.964844 L 242.160156 230.105469 C 242.160156 233.503906 239.394531 236.273438 235.996094 236.273438 L 235.910156 236.273438 C 232.550781 236.273438 229.828125 238.992188 229.828125 242.351562 C 229.828125 245.707031 232.550781 248.433594 235.910156 248.433594 L 235.996094 248.433594 C 246.101562 248.433594 254.320312 240.210938 254.320312 230.105469 L 254.320312 223.964844 C 254.320312 221.753906 255.230469 219.597656 256.808594 218.050781 L 264.6875 210.34375 C 265.851562 209.207031 266.507812 207.652344 266.515625 206.03125 C 266.527344 204.402344 265.882812 202.84375 264.734375 201.695312 L 256.707031 193.667969 C 255.15625 192.121094 254.292969 190.0625 254.28125 187.875 L 254.234375 181.5 C 254.167969 171.464844 245.945312 163.300781 235.910156 163.300781 C 232.550781 163.300781 229.828125 166.023438 229.828125 169.382812 C 229.828125 172.738281 232.550781 175.464844 235.910156 175.464844 C 239.285156 175.464844 242.054688 178.210938 242.074219 181.585938 L 242.117188 187.957031 C 242.15625 193.363281 244.28125 198.449219 248.109375 202.269531 L 251.789062 205.949219 L 248.304688 209.355469 C 244.398438 213.175781 242.160156 218.503906 242.160156 223.964844 Z M 242.160156 223.964844 " clip-rule="nonzero"/></clipPath><clipPath id="80d5c101af"><path d="M 56 126 L 319 126 L 319 285 L 56 285 Z M 56 126 " clip-rule="nonzero"/></clipPath><clipPath id="bf00b16909"><path d="M 312.375 126.28125 L 62.617188 126.28125 C 59.257812 126.28125 56.535156 129.003906 56.535156 132.359375 L 56.535156 278.300781 C 56.535156 281.660156 59.257812 284.382812 62.617188 284.382812 L 135 284.382812 C 138.359375 284.382812 141.082031 281.660156 141.082031 278.300781 C 141.082031 274.945312 138.359375 272.21875 135 272.21875 L 68.695312 272.21875 L 68.695312 138.441406 L 306.296875 138.441406 L 306.296875 272.21875 L 183.847656 272.21875 C 180.488281 272.21875 177.765625 274.945312 177.765625 278.300781 C 177.765625 281.660156 180.488281 284.382812 183.847656 284.382812 L 312.375 284.382812 C 315.734375 284.382812 318.457031 281.660156 318.457031 278.300781 L 318.457031 132.359375 C 318.457031 129.003906 315.734375 126.28125 312.375 126.28125 Z M 312.375 126.28125 " clip-rule="nonzero"/></clipPath></defs><g mask="url(#2057dc5ee4)"><g transform="matrix(1, 0, 0, 1, 39, 70)"><g clip-path="url(#6c6755bd1d)"><g clip-path="url(#d259db3433)"><g clip-path="url(#aa3c683582)"><path fill="#175175" d="M 0.609375 0.742188 L 0.609375 226.464844 L 296.382812 226.464844 L 296.382812 0.742188 Z M 0.609375 0.742188 " fill-opacity="1" fill-rule="nonzero"/></g></g></g></g></g><g clip-path="url(#2bb782fd80)"><g clip-path="url(#0d7581baa1)"><path fill="#175175" d="M 31.828125 65.878906 L 31.828125 309.109375 L 343.074219 309.109375 L 343.074219 65.878906 Z M 31.828125 65.878906 " fill-opacity="1" fill-rule="nonzero"/></g></g><g clip-path="url(#a46dd663b8)"><g clip-path="url(#5695bd3abe)"><path fill="#175175" d="M 141.890625 95.875 L 141.890625 108.039062 L 310.9375 108.039062 L 310.9375 95.875 Z M 141.890625 95.875 " fill-opacity="1" fill-rule="nonzero"/></g></g><g clip-path="url(#666201786b)"><g clip-path="url(#27401f4aa5)"><path fill="#175175" d="M 62.429688 95.839844 L 62.429688 108.039062 L 74.59375 108.039062 L 74.59375 95.839844 Z M 62.429688 95.839844 " fill-opacity="1" fill-rule="nonzero"/></g></g><g clip-path="url(#c39e25bb13)"><g clip-path="url(#1e0b3a143e)"><path fill="#175175" d="M 86.753906 95.839844 L 86.753906 108.039062 L 98.914062 108.039062 L 98.914062 95.839844 Z M 86.753906 95.839844 " fill-opacity="1" fill-rule="nonzero"/></g></g><g clip-path="url(#111a6cd88d)"><g clip-path="url(#378fd54c8e)"><path fill="#175175" d="M 111.078125 95.839844 L 111.078125 108.035156 L 123.238281 108.035156 L 123.238281 95.839844 Z M 111.078125 95.839844 " fill-opacity="1" fill-rule="nonzero"/></g></g><g clip-path="url(#d3c637ecac)"><g clip-path="url(#516dde7949)"><path fill="#175175" d="M 162.511719 168.183594 L 162.511719 242.226562 L 212.480469 242.226562 L 212.480469 168.183594 Z M 162.511719 168.183594 " fill-opacity="1" fill-rule="nonzero"/></g></g><g clip-path="url(#7467f62677)"><g clip-path="url(#01a6b9a0c2)"><path fill="#175175" d="M 108.464844 163.300781 L 108.464844 248.433594 L 145.160156 248.433594 L 145.160156 163.300781 Z M 108.464844 163.300781 " fill-opacity="1" fill-rule="nonzero"/></g></g><g clip-path="url(#bbe55d4b5a)"><g clip-path="url(#595ed669d8)"><path fill="#175175" d="M 229.828125 163.300781 L 229.828125 248.433594 L 266.527344 248.433594 L 266.527344 163.300781 Z M 229.828125 163.300781 " fill-opacity="1" fill-rule="nonzero"/></g></g><g clip-path="url(#80d5c101af)"><g clip-path="url(#bf00b16909)"><path fill="#175175" d="M 56.535156 126.28125 L 56.535156 284.382812 L 318.457031 284.382812 L 318.457031 126.28125 Z M 56.535156 126.28125 " fill-opacity="1" fill-rule="nonzero"/></g></g></svg>