<svg xmlns="http://www.w3.org/2000/svg" xmlns:xlink="http://www.w3.org/1999/xlink" width="500" zoomAndPan="magnify" viewBox="0 0 375 374.999991" height="500" preserveAspectRatio="xMidYMid meet" version="1.0"><defs><filter x="0%" y="0%" width="100%" height="100%" id="6a22cb50be"><feColorMatrix values="0 0 0 0 1 0 0 0 0 1 0 0 0 0 1 0 0 0 1 0" color-interpolation-filters="sRGB"/></filter><mask id="1280246d45"><g filter="url(#6a22cb50be)"><rect x="-37.5" width="450" fill="#000000" y="-37.499999" height="449.999989" fill-opacity="0.15"/></g></mask><clipPath id="36ca847d7f"><path d="M 0.71875 0 L 172 0 L 172 327 L 0.71875 327 Z M 0.71875 0 " clip-rule="nonzero"/></clipPath><clipPath id="67bb31dd2a"><path d="M 17.933594 0.0546875 C 8.433594 0.0546875 0.730469 7.757812 0.730469 17.257812 L 0.730469 309.730469 C 0.730469 319.234375 8.433594 326.933594 17.933594 326.933594 L 154.707031 326.933594 C 164.210938 326.933594 171.914062 319.234375 171.914062 309.730469 L 171.914062 17.257812 C 171.914062 7.757812 164.210938 0.0546875 154.707031 0.0546875 L 126.863281 0.0546875 L 126.863281 8.65625 L 45.777344 8.65625 L 45.777344 0.0546875 Z M 17.933594 0.0546875 " clip-rule="evenodd"/></clipPath><clipPath id="c1a4d88b3e"><rect x="0" width="173" y="0" height="328"/></clipPath><clipPath id="90d093306e"><path d="M 91 15.171875 L 274 15.171875 L 274 360 L 91 360 Z M 91 15.171875 " clip-rule="nonzero"/></clipPath><clipPath id="b2245018a3"><path d="M 161.320312 322.328125 C 158.105469 322.328125 155.5 324.933594 155.5 328.144531 C 155.5 331.359375 158.105469 333.964844 161.320312 333.964844 Z M 203.941406 333.964844 C 207.152344 333.964844 209.757812 331.359375 209.757812 328.144531 C 209.757812 324.933594 207.152344 322.328125 203.941406 322.328125 Z M 91.570312 268.476562 C 91.570312 271.6875 94.175781 274.292969 97.386719 274.292969 C 100.601562 274.292969 103.207031 271.6875 103.207031 268.476562 Z M 103.207031 294.050781 C 103.207031 290.835938 100.601562 288.230469 97.386719 288.230469 C 94.175781 288.230469 91.570312 290.835938 91.570312 294.050781 Z M 262.054688 80.941406 C 262.054688 84.15625 264.660156 86.757812 267.875 86.757812 C 271.085938 86.757812 273.691406 84.15625 273.691406 80.941406 Z M 273.691406 106.515625 C 273.691406 103.300781 271.085938 100.695312 267.875 100.695312 C 264.660156 100.695312 262.054688 103.300781 262.054688 106.515625 Z M 247.09375 347.902344 L 118.164062 347.902344 L 118.164062 359.535156 L 247.09375 359.535156 Z M 118.164062 27.089844 L 144.269531 27.089844 L 144.269531 15.453125 L 118.164062 15.453125 Z M 138.453125 30.007812 L 150.089844 30.007812 L 150.089844 21.269531 L 138.453125 21.269531 Z M 152.582031 44.136719 L 212.679688 44.136719 L 212.679688 32.5 L 152.582031 32.5 Z M 144.269531 27.089844 L 220.988281 27.089844 L 220.988281 15.453125 L 144.269531 15.453125 Z M 220.988281 27.089844 L 247.09375 27.089844 L 247.09375 15.453125 L 220.988281 15.453125 Z M 226.808594 30.007812 L 226.808594 21.269531 L 215.171875 21.269531 L 215.171875 30.007812 Z M 161.320312 333.964844 L 203.941406 333.964844 L 203.941406 322.328125 L 161.320312 322.328125 Z M 103.207031 268.476562 L 103.207031 42.050781 L 91.570312 42.050781 L 91.570312 268.476562 Z M 103.207031 332.941406 L 103.207031 294.050781 L 91.570312 294.050781 L 91.570312 332.941406 Z M 262.054688 42.050781 L 262.054688 80.941406 L 273.691406 80.941406 L 273.691406 42.050781 Z M 262.054688 106.515625 L 262.054688 332.941406 L 273.691406 332.941406 L 273.691406 106.515625 Z M 212.679688 44.136719 C 220.480469 44.136719 226.808594 37.8125 226.808594 30.007812 L 215.171875 30.007812 C 215.171875 31.386719 214.054688 32.5 212.679688 32.5 Z M 118.164062 347.902344 C 109.902344 347.902344 103.207031 341.203125 103.207031 332.941406 L 91.570312 332.941406 C 91.570312 347.628906 103.476562 359.535156 118.164062 359.535156 Z M 247.09375 359.535156 C 261.785156 359.535156 273.691406 347.628906 273.691406 332.941406 L 262.054688 332.941406 C 262.054688 341.203125 255.359375 347.902344 247.09375 347.902344 Z M 247.09375 27.089844 C 255.359375 27.089844 262.054688 33.785156 262.054688 42.050781 L 273.691406 42.050781 C 273.691406 27.359375 261.785156 15.453125 247.09375 15.453125 Z M 138.453125 30.007812 C 138.453125 37.8125 144.777344 44.136719 152.582031 44.136719 L 152.582031 32.5 C 151.207031 32.5 150.089844 31.386719 150.089844 30.007812 Z M 118.164062 15.453125 C 103.476562 15.453125 91.570312 27.359375 91.570312 42.050781 L 103.207031 42.050781 C 103.207031 33.785156 109.902344 27.089844 118.164062 27.089844 Z M 118.164062 15.453125 " clip-rule="nonzero"/></clipPath></defs><g mask="url(#1280246d45)"><g transform="matrix(1, 0, 0, 1, 96, 24)"><g clip-path="url(#c1a4d88b3e)"><g clip-path="url(#36ca847d7f)"><g clip-path="url(#67bb31dd2a)"><path fill="#175175" d="M 0.730469 0.0546875 L 0.730469 326.933594 L 171.914062 326.933594 L 171.914062 0.0546875 Z M 0.730469 0.0546875 " fill-opacity="1" fill-rule="nonzero"/></g></g></g></g></g><g clip-path="url(#90d093306e)"><g clip-path="url(#b2245018a3)"><path fill="#175175" d="M 91.570312 15.453125 L 91.570312 359.535156 L 273.691406 359.535156 L 273.691406 15.453125 Z M 91.570312 15.453125 " fill-opacity="1" fill-rule="nonzero"/></g></g></svg>