<svg xmlns="http://www.w3.org/2000/svg" xmlns:xlink="http://www.w3.org/1999/xlink" width="500" zoomAndPan="magnify" viewBox="0 0 375 374.999991" height="500" preserveAspectRatio="xMidYMid meet" version="1.0"><defs><filter x="0%" y="0%" width="100%" height="100%" id="cf3bb1f5a6"><feColorMatrix values="0 0 0 0 1 0 0 0 0 1 0 0 0 0 1 0 0 0 1 0" color-interpolation-filters="sRGB"/></filter><clipPath id="634a4d727a"><path d="M 30 39 L 333.894531 39 L 333.894531 336 L 30 336 Z M 30 39 " clip-rule="nonzero"/></clipPath><mask id="eccce1b94f"><g filter="url(#cf3bb1f5a6)"><rect x="-37.5" width="450" fill="#000000" y="-37.499999" height="449.999989" fill-opacity="0.15"/></g></mask><clipPath id="0b9161cdff"><path d="M 0.71875 0.601562 L 297 0.601562 L 297 296.519531 L 0.71875 296.519531 Z M 0.71875 0.601562 " clip-rule="nonzero"/></clipPath><clipPath id="b2afbea40e"><path d="M 293.832031 139.726562 C 292.210938 139.054688 290.34375 139.425781 289.101562 140.671875 L 276.101562 153.710938 L 276.101562 65.039062 C 276.101562 62.632812 274.160156 60.683594 271.761719 60.683594 L 238.410156 60.683594 L 250.519531 48.539062 L 250.523438 48.53125 L 262.1875 36.832031 C 264.6875 34.324219 266.0625 30.988281 266.0625 27.441406 C 266.0625 23.894531 264.6875 20.5625 262.1875 18.054688 L 248.699219 4.519531 C 246.199219 2.011719 242.875 0.632812 239.339844 0.632812 C 235.804688 0.632812 232.480469 2.011719 229.980469 4.519531 L 218.3125 16.230469 L 204.207031 30.375 L 174 60.683594 L 39.265625 60.683594 L 39.265625 17.605469 C 39.265625 15.199219 37.320312 13.25 34.925781 13.25 C 16.101562 13.25 0.785156 28.613281 0.785156 47.5 L 0.785156 232.449219 C 0.785156 232.773438 0.824219 233.085938 0.890625 233.386719 C 1.488281 241.398438 4.945312 248.84375 10.71875 254.496094 C 16.894531 260.539062 25.042969 263.863281 33.667969 263.863281 L 166.304688 263.863281 L 141.324219 288.925781 C 140.082031 290.167969 139.710938 292.042969 140.382812 293.667969 C 141.054688 295.296875 142.636719 296.359375 144.394531 296.359375 L 292.171875 296.359375 C 294.570312 296.359375 296.511719 294.410156 296.511719 292.003906 L 296.511719 143.75 C 296.511719 141.988281 295.453125 140.402344 293.832031 139.726562 Z M 236.121094 10.679688 C 237.894531 8.898438 240.785156 8.898438 242.5625 10.679688 L 256.050781 24.210938 C 257.824219 25.992188 257.824219 28.890625 256.050781 30.671875 L 247.449219 39.300781 L 227.519531 19.308594 Z M 221.378906 25.46875 L 241.308594 45.460938 L 233.347656 53.449219 L 213.417969 33.457031 Z M 129.402344 154.113281 L 116.96875 158.515625 L 108.6875 150.207031 L 113.074219 137.734375 Z M 258.285156 216.296875 L 216.449219 258.128906 C 215.984375 258.597656 216.3125 259.390625 216.972656 259.390625 L 259.546875 259.390625 L 259.546875 216.816406 C 259.546875 216.160156 258.75 215.828125 258.285156 216.296875 Z M 111.683594 130.011719 L 137.558594 155.886719 L 233.671875 59.777344 L 207.792969 33.902344 Z M 111.683594 130.011719 " clip-rule="evenodd"/></clipPath><clipPath id="0a41683541"><rect x="0" width="304" y="0" height="297"/></clipPath><clipPath id="5a8a65e544"><path d="M 239 248 L 296 248 L 296 305 L 239 305 Z M 239 248 " clip-rule="nonzero"/></clipPath><clipPath id="32bf264e65"><path d="M 292.503906 248.523438 C 290.878906 247.851562 289.011719 248.222656 287.773438 249.46875 L 240.335938 297.054688 C 239.09375 298.300781 238.722656 300.175781 239.394531 301.800781 C 240.066406 303.429688 241.652344 304.488281 243.40625 304.488281 L 290.839844 304.488281 C 293.238281 304.488281 295.183594 302.539062 295.183594 300.136719 L 295.183594 252.546875 C 295.179688 250.789062 294.125 249.199219 292.503906 248.523438 Z M 253.882812 295.78125 L 286.5 263.058594 L 286.5 295.78125 Z M 253.882812 295.78125 " clip-rule="nonzero"/></clipPath><clipPath id="514c321989"><path d="M 30 39 L 327 39 L 327 336 L 30 336 Z M 30 39 " clip-rule="nonzero"/></clipPath><clipPath id="d77ae5dbd8"><path d="M 323.832031 178.726562 C 322.210938 178.054688 320.34375 178.425781 319.101562 179.671875 L 306.101562 192.710938 L 306.101562 104.039062 C 306.101562 101.632812 304.160156 99.683594 301.761719 99.683594 L 268.410156 99.683594 L 280.519531 87.539062 C 280.519531 87.539062 280.523438 87.535156 280.523438 87.53125 L 292.1875 75.832031 C 294.6875 73.324219 296.0625 69.988281 296.0625 66.441406 C 296.0625 62.894531 294.6875 59.5625 292.1875 57.054688 L 278.699219 43.519531 C 276.199219 41.011719 272.875 39.632812 269.339844 39.632812 C 265.804688 39.632812 262.480469 41.011719 259.980469 43.519531 L 248.3125 55.230469 L 234.207031 69.375 L 204 99.683594 L 69.265625 99.683594 L 69.265625 56.605469 C 69.265625 54.199219 67.320312 52.25 64.925781 52.25 C 46.101562 52.25 30.785156 67.613281 30.785156 86.5 L 30.785156 271.449219 C 30.785156 271.773438 30.824219 272.085938 30.890625 272.386719 C 31.488281 280.398438 34.945312 287.84375 40.71875 293.496094 C 46.894531 299.539062 55.042969 302.863281 63.667969 302.863281 L 196.304688 302.863281 L 171.324219 327.925781 C 170.082031 329.167969 169.710938 331.042969 170.382812 332.667969 C 171.054688 334.296875 172.636719 335.359375 174.394531 335.359375 L 322.171875 335.359375 C 324.570312 335.359375 326.511719 333.410156 326.511719 331.003906 L 326.511719 182.75 C 326.511719 180.988281 325.453125 179.402344 323.832031 178.726562 Z M 266.121094 49.679688 C 267.894531 47.898438 270.785156 47.898438 272.5625 49.679688 L 286.050781 63.210938 C 287.824219 64.992188 287.824219 67.890625 286.050781 69.671875 L 277.449219 78.300781 L 257.519531 58.308594 Z M 251.378906 64.46875 L 271.308594 84.460938 L 263.347656 92.449219 L 243.417969 72.457031 Z M 317.832031 231.679688 L 309.824219 231.679688 C 307.425781 231.679688 305.484375 233.628906 305.484375 236.035156 C 305.484375 238.441406 307.425781 240.390625 309.824219 240.390625 L 317.832031 240.390625 L 317.832031 253.511719 L 309.824219 253.511719 C 307.425781 253.511719 305.484375 255.460938 305.484375 257.867188 C 305.484375 260.269531 307.425781 262.21875 309.824219 262.21875 L 317.832031 262.21875 L 317.832031 275.34375 L 309.824219 275.34375 C 307.425781 275.34375 305.484375 277.289062 305.484375 279.695312 C 305.484375 282.101562 307.425781 284.050781 309.824219 284.050781 L 317.832031 284.050781 L 317.832031 297.171875 L 309.824219 297.171875 C 307.425781 297.171875 305.484375 299.121094 305.484375 301.527344 C 305.484375 303.933594 307.425781 305.882812 309.824219 305.882812 L 317.832031 305.882812 L 317.832031 326.648438 L 184.871094 326.648438 L 228.714844 282.667969 C 230.410156 280.964844 230.410156 278.210938 228.714844 276.507812 C 228.519531 276.3125 228.3125 276.144531 228.09375 275.992188 C 226.402344 274.832031 224.078125 275.003906 222.574219 276.507812 L 204.984375 294.15625 L 63.667969 294.15625 C 50.503906 294.15625 39.90625 283.84375 39.488281 270.664062 C 39.511719 269.835938 39.578125 269.015625 39.679688 268.203125 C 39.679688 268.199219 39.679688 268.195312 39.683594 268.1875 C 39.730469 267.804688 39.789062 267.421875 39.855469 267.039062 C 39.863281 266.996094 39.871094 266.953125 39.878906 266.910156 C 39.9375 266.570312 40.007812 266.230469 40.082031 265.894531 C 40.101562 265.800781 40.125 265.703125 40.144531 265.613281 C 40.210938 265.328125 40.285156 265.042969 40.359375 264.761719 C 40.402344 264.609375 40.445312 264.457031 40.488281 264.304688 C 40.550781 264.082031 40.617188 263.863281 40.6875 263.644531 C 40.757812 263.425781 40.832031 263.210938 40.910156 262.992188 C 40.960938 262.84375 41.011719 262.691406 41.070312 262.539062 C 41.175781 262.253906 41.289062 261.972656 41.402344 261.695312 C 41.4375 261.613281 41.46875 261.53125 41.503906 261.449219 C 41.652344 261.101562 41.804688 260.761719 41.96875 260.417969 C 41.972656 260.40625 41.980469 260.390625 41.988281 260.375 C 45.382812 253.328125 51.914062 248.074219 59.75 246.441406 C 59.769531 246.4375 59.792969 246.433594 59.816406 246.425781 C 60.171875 246.355469 60.535156 246.292969 60.902344 246.234375 C 60.960938 246.222656 61.023438 246.210938 61.085938 246.203125 C 61.414062 246.152344 61.746094 246.113281 62.082031 246.074219 C 62.175781 246.0625 62.265625 246.050781 62.363281 246.039062 C 62.683594 246.007812 63.007812 245.984375 63.332031 245.964844 C 63.433594 245.957031 63.539062 245.949219 63.640625 245.941406 C 64.066406 245.921875 64.496094 245.910156 64.925781 245.910156 C 67.320312 245.910156 69.265625 243.960938 69.265625 241.554688 L 69.265625 209.980469 C 69.265625 207.578125 67.320312 205.628906 64.925781 205.628906 C 62.527344 205.628906 60.585938 207.578125 60.585938 209.980469 L 60.585938 237.476562 C 53.253906 238.40625 46.453125 241.683594 41.085938 246.941406 C 40.523438 247.492188 39.988281 248.070312 39.464844 248.652344 L 39.464844 86.5 C 39.464844 73.902344 48.609375 63.402344 60.582031 61.332031 L 60.582031 192.566406 C 60.582031 194.96875 62.527344 196.921875 64.925781 196.921875 C 67.320312 196.921875 69.265625 194.96875 69.265625 192.566406 L 69.265625 108.394531 L 195.320312 108.394531 L 171.324219 132.464844 C 169.628906 134.167969 169.628906 136.925781 171.324219 138.625 C 173.019531 140.324219 175.765625 140.324219 177.460938 138.625 L 208.867188 107.117188 C 208.867188 107.117188 208.867188 107.117188 208.867188 107.113281 L 237.277344 78.613281 L 257.207031 98.609375 L 254.867188 100.953125 C 254.867188 100.957031 254.863281 100.957031 254.863281 100.960938 L 167.339844 188.761719 L 147.414062 168.769531 L 164.664062 151.464844 C 166.359375 149.761719 166.359375 147.003906 164.664062 145.304688 C 162.96875 143.605469 160.21875 143.605469 158.527344 145.304688 L 138.203125 165.691406 C 138.097656 165.800781 137.996094 165.914062 137.898438 166.03125 C 137.867188 166.074219 137.839844 166.113281 137.808594 166.15625 C 137.746094 166.238281 137.6875 166.320312 137.632812 166.40625 C 137.601562 166.457031 137.570312 166.507812 137.539062 166.558594 C 137.492188 166.640625 137.445312 166.722656 137.40625 166.804688 C 137.378906 166.859375 137.351562 166.914062 137.328125 166.972656 C 137.289062 167.058594 137.253906 167.144531 137.21875 167.230469 C 137.207031 167.261719 137.191406 167.289062 137.179688 167.320312 L 128.726562 191.355469 L 122.960938 207.742188 C 122.882812 207.957031 122.828125 208.179688 122.789062 208.402344 L 108.351562 208.402344 C 105.957031 208.402344 104.011719 210.351562 104.011719 212.757812 C 104.011719 215.164062 105.957031 217.113281 108.351562 217.113281 L 228.554688 217.113281 C 230.953125 217.113281 232.898438 215.164062 232.898438 212.757812 C 232.898438 210.351562 230.953125 208.402344 228.554688 208.402344 L 142.316406 208.402344 L 168.785156 199.027344 C 168.808594 199.019531 168.828125 199.007812 168.851562 199 C 168.953125 198.960938 169.054688 198.917969 169.152344 198.875 C 169.195312 198.855469 169.234375 198.835938 169.273438 198.820312 C 169.375 198.765625 169.480469 198.710938 169.578125 198.648438 C 169.613281 198.628906 169.644531 198.609375 169.675781 198.589844 C 169.78125 198.523438 169.882812 198.449219 169.984375 198.371094 C 170.007812 198.351562 170.035156 198.335938 170.058594 198.316406 C 170.179688 198.21875 170.296875 198.113281 170.410156 198 L 259.730469 108.394531 L 297.421875 108.394531 L 297.421875 201.421875 L 235.332031 263.710938 C 233.636719 265.414062 233.636719 268.167969 235.332031 269.867188 C 235.4375 269.976562 235.546875 270.074219 235.664062 270.167969 C 236.457031 270.820312 237.429688 271.144531 238.402344 271.144531 C 239.375 271.144531 240.347656 270.820312 241.140625 270.167969 C 241.253906 270.074219 241.367188 269.976562 241.472656 269.867188 L 317.832031 193.261719 Z M 159.402344 193.113281 L 146.96875 197.515625 L 138.6875 189.207031 L 143.074219 176.734375 Z M 159.402344 193.113281 " clip-rule="nonzero"/></clipPath><clipPath id="1359a2a2b6"><path d="M 23.394531 32.238281 L 333.894531 32.238281 L 333.894531 342.738281 L 23.394531 342.738281 Z M 23.394531 32.238281 " clip-rule="nonzero"/></clipPath></defs><g clip-path="url(#634a4d727a)"><g mask="url(#eccce1b94f)"><g transform="matrix(1, 0, 0, 1, 30, 39)"><g clip-path="url(#0a41683541)"><g clip-path="url(#0b9161cdff)"><g clip-path="url(#b2afbea40e)"><path fill="#175175" d="M 0.785156 0.632812 L 0.785156 296.359375 L 296.511719 296.359375 L 296.511719 0.632812 Z M 0.785156 0.632812 " fill-opacity="1" fill-rule="nonzero"/></g></g></g></g></g></g><g clip-path="url(#5a8a65e544)"><g clip-path="url(#32bf264e65)"><path fill="#175175" d="M 238.722656 247.851562 L 238.722656 304.488281 L 295.183594 304.488281 L 295.183594 247.851562 Z M 238.722656 247.851562 " fill-opacity="1" fill-rule="nonzero"/></g></g><path stroke-linecap="butt" transform="matrix(7.393136, 0, 0, 7.393136, 23.39342, 32.239418)" fill="none" stroke-linejoin="miter" d="M 36.400046 29.254706 C 36.180247 29.163828 35.92769 29.214022 35.7602 29.38257 L 29.343775 35.819072 C 29.175756 35.98762 29.125562 36.241233 29.21644 36.461032 C 29.307318 36.681359 29.521833 36.824545 29.759067 36.824545 L 36.174964 36.824545 C 36.499378 36.824545 36.762502 36.560892 36.762502 36.23595 L 36.762502 29.798919 C 36.761974 29.561156 36.619316 29.346113 36.400046 29.254706 Z M 31.176134 35.646826 L 35.587954 31.22074 L 35.587954 35.646826 Z M 31.176134 35.646826 " stroke="#175175" stroke-width="0.25" stroke-opacity="1" stroke-miterlimit="4"/><g clip-path="url(#514c321989)"><g clip-path="url(#d77ae5dbd8)"><path fill="#175175" d="M 30.785156 39.632812 L 30.785156 335.359375 L 326.511719 335.359375 L 326.511719 39.632812 Z M 30.785156 39.632812 " fill-opacity="1" fill-rule="nonzero"/></g></g><g clip-path="url(#1359a2a2b6)"><path stroke-linecap="butt" transform="matrix(7.393136, 0, 0, 7.393136, 23.39342, 32.239418)" fill="none" stroke-linejoin="miter" d="M 40.637507 19.813939 C 40.418237 19.723061 40.16568 19.773255 39.997661 19.941803 L 38.239273 21.705474 L 38.239273 9.711663 C 38.239273 9.386192 37.976677 9.12254 37.652263 9.12254 L 33.141111 9.12254 L 34.779032 7.479863 C 34.779032 7.479863 34.77956 7.479335 34.77956 7.478806 L 36.357249 5.896363 C 36.6954 5.557155 36.881383 5.105934 36.881383 4.626181 C 36.881383 4.146429 36.6954 3.695736 36.357249 3.356528 L 34.532816 1.525755 C 34.194664 1.186547 33.745028 1.000035 33.266861 1.000035 C 32.788693 1.000035 32.339058 1.186547 32.000906 1.525755 L 30.42269 3.109783 L 28.514776 5.022981 L 24.428954 9.12254 L 6.204702 9.12254 L 6.204702 3.295767 C 6.204702 2.970296 5.941578 2.706643 5.617692 2.706643 C 3.071517 2.706643 0.999811 4.78469 0.999811 7.339319 L 0.999811 32.355661 C 0.999811 32.399515 1.005094 32.441784 1.014076 32.482468 C 1.094916 33.566138 1.562516 34.573195 2.343434 35.337735 C 3.178774 36.15511 4.280937 36.604746 5.44756 36.604746 L 23.388082 36.604746 L 20.009209 39.994715 C 19.84119 40.162734 19.790995 40.416348 19.881873 40.636146 C 19.972752 40.856473 20.186738 41.000187 20.424501 41.000187 L 40.412953 41.000187 C 40.737367 41.000187 40.999963 40.736535 40.999963 40.411064 L 40.999963 20.358152 C 40.999963 20.119861 40.856777 19.905346 40.637507 19.813939 Z M 32.831491 2.358981 C 33.071367 2.118048 33.462355 2.118048 33.702759 2.358981 L 35.527192 4.189226 C 35.767068 4.430159 35.767068 4.822204 35.527192 5.063137 L 34.36374 6.230288 L 31.668038 3.526132 Z M 30.837454 4.359359 L 33.533155 7.063514 L 32.456354 8.144014 L 29.760652 5.439859 Z M 39.825943 26.976411 L 38.742802 26.976411 C 38.418388 26.976411 38.155792 27.240063 38.155792 27.565534 C 38.155792 27.891005 38.418388 28.154657 38.742802 28.154657 L 39.825943 28.154657 L 39.825943 29.929424 L 38.742802 29.929424 C 38.418388 29.929424 38.155792 30.193077 38.155792 30.518547 C 38.155792 30.84349 38.418388 31.107142 38.742802 31.107142 L 39.825943 31.107142 L 39.825943 32.882438 L 38.742802 32.882438 C 38.418388 32.882438 38.155792 33.145562 38.155792 33.471033 C 38.155792 33.796504 38.418388 34.060156 38.742802 34.060156 L 39.825943 34.060156 L 39.825943 35.834923 L 38.742802 35.834923 C 38.418388 35.834923 38.155792 36.098576 38.155792 36.424046 C 38.155792 36.749517 38.418388 37.01317 38.742802 37.01317 L 39.825943 37.01317 L 39.825943 39.821941 L 21.841567 39.821941 L 27.771899 33.873116 C 28.001208 33.64275 28.001208 33.270255 27.771899 33.03989 C 27.745481 33.013472 27.717478 32.990752 27.687889 32.970146 C 27.459109 32.813222 27.144734 32.83647 26.941314 33.03989 L 24.562102 35.427028 L 5.44756 35.427028 C 3.666981 35.427028 2.233535 34.032153 2.177001 32.24946 C 2.180171 32.137448 2.189153 32.026492 2.20289 31.916593 C 2.20289 31.916064 2.20289 31.915536 2.203419 31.914479 C 2.209759 31.8627 2.217684 31.81092 2.226667 31.759141 C 2.227723 31.753329 2.22878 31.747517 2.229837 31.741705 C 2.237762 31.695737 2.247273 31.64977 2.257312 31.604331 C 2.259953 31.59165 2.263124 31.578441 2.265765 31.566289 C 2.274747 31.527718 2.284786 31.489148 2.294825 31.451106 C 2.300637 31.4305 2.306449 31.409894 2.312261 31.389288 C 2.320715 31.359171 2.329697 31.329583 2.339208 31.299994 C 2.348718 31.270406 2.358757 31.241346 2.369324 31.211758 C 2.376193 31.19168 2.383062 31.171074 2.390987 31.150468 C 2.405253 31.111898 2.420575 31.073856 2.435898 31.036342 C 2.440653 31.025246 2.44488 31.014151 2.449635 31.003055 C 2.469713 30.956031 2.490319 30.910064 2.51251 30.863568 C 2.513039 30.861983 2.514095 30.859869 2.515152 30.857756 C 2.974298 29.904591 3.857719 29.193945 4.917613 28.973089 C 4.920255 28.972561 4.923425 28.972033 4.926595 28.970976 C 4.974676 28.961466 5.023813 28.953012 5.07348 28.945086 C 5.081405 28.943501 5.089859 28.941916 5.098313 28.940859 C 5.142695 28.933991 5.187606 28.928707 5.233045 28.923423 C 5.245725 28.921838 5.257878 28.920253 5.271087 28.918668 C 5.314412 28.914441 5.358266 28.911271 5.40212 28.908629 C 5.415858 28.907573 5.430124 28.906516 5.443861 28.905459 C 5.501452 28.902817 5.559572 28.901232 5.617692 28.901232 C 5.941578 28.901232 6.204702 28.63758 6.204702 28.312109 L 6.204702 24.041361 C 6.204702 23.716419 5.941578 23.452766 5.617692 23.452766 C 5.293278 23.452766 5.030682 23.716419 5.030682 24.041361 L 5.030682 27.760499 C 4.038947 27.886249 3.11907 28.329545 2.393101 29.04072 C 2.317016 29.115219 2.244631 29.193416 2.17383 29.272142 L 2.17383 7.339319 C 2.17383 5.635352 3.410725 4.215116 5.030154 3.935084 L 5.030154 21.685925 C 5.030154 22.010867 5.293278 22.275048 5.617692 22.275048 C 5.941578 22.275048 6.204702 22.010867 6.204702 21.685925 L 6.204702 10.300786 L 23.254935 10.300786 L 20.009209 13.556551 C 19.7799 13.786917 19.7799 14.15994 20.009209 14.389778 C 20.238518 14.619615 20.609956 14.619615 20.839265 14.389778 L 25.087293 10.128012 C 25.087293 10.128012 25.087293 10.128012 25.087293 10.127484 L 28.930068 6.272557 L 31.625769 8.97724 L 31.309281 9.294257 C 31.309281 9.294786 31.308752 9.294786 31.308752 9.295314 L 19.47028 21.1713 L 16.775106 18.467145 L 19.108352 16.126503 C 19.337661 15.896137 19.337661 15.523114 19.108352 15.293276 C 18.879043 15.063439 18.507076 15.063439 18.278296 15.293276 L 15.52923 18.050796 C 15.514964 18.06559 15.501226 18.080913 15.488017 18.096763 C 15.48379 18.102575 15.480092 18.107859 15.475865 18.113671 C 15.467411 18.124767 15.459486 18.135862 15.452089 18.147486 C 15.447862 18.154355 15.443635 18.161224 15.439408 18.168092 C 15.433068 18.179188 15.426727 18.190284 15.421444 18.201379 C 15.417745 18.208776 15.414047 18.216173 15.410877 18.224099 C 15.405593 18.235723 15.400838 18.247347 15.396082 18.258971 C 15.394497 18.263197 15.392384 18.266896 15.390799 18.271123 L 14.247424 21.522133 L 13.467562 23.73861 C 13.456995 23.76767 13.449598 23.797786 13.444314 23.827903 L 11.491489 23.827903 C 11.167604 23.827903 10.904479 24.091556 10.904479 24.417026 C 10.904479 24.742497 11.167604 25.00615 11.491489 25.00615 L 27.750236 25.00615 C 28.07465 25.00615 28.337774 24.742497 28.337774 24.417026 C 28.337774 24.091556 28.07465 23.827903 27.750236 23.827903 L 16.085594 23.827903 L 19.665773 22.559835 C 19.668944 22.558778 19.671585 22.557193 19.674756 22.556136 C 19.688493 22.550853 19.70223 22.545041 19.715439 22.539229 C 19.721251 22.536587 19.726535 22.533945 19.731819 22.531832 C 19.745556 22.524435 19.759822 22.517038 19.773031 22.508584 C 19.777786 22.505942 19.782013 22.5033 19.78624 22.500658 C 19.800506 22.491676 19.814243 22.481637 19.827981 22.47107 C 19.831151 22.468428 19.834849 22.466315 19.838019 22.463673 C 19.854399 22.450464 19.870249 22.436198 19.885572 22.420876 L 31.967091 10.300786 L 37.065253 10.300786 L 37.065253 22.883721 L 28.666944 31.308977 C 28.437635 31.539342 28.437635 31.911837 28.666944 32.141675 C 28.681209 32.156469 28.696004 32.169678 28.711854 32.182359 C 28.819112 32.270595 28.950674 32.314449 29.082236 32.314449 C 29.213798 32.314449 29.34536 32.270595 29.452618 32.182359 C 29.46794 32.169678 29.483263 32.156469 29.497528 32.141675 L 39.825943 21.779973 Z M 18.396649 21.759895 L 16.714873 22.355359 L 15.594746 21.231534 L 16.188097 19.544475 Z M 18.396649 21.759895 " stroke="#175175" stroke-width="0.25" stroke-opacity="1" stroke-miterlimit="4"/></g></svg>